<?xml version="1.0" standalone="no"?>
<!DOCTYPE svg PUBLIC "-//W3C//DTD SVG 20010904//EN"
 "http://www.w3.org/TR/2001/REC-SVG-20010904/DTD/svg10.dtd">
<svg version="1.0" xmlns="http://www.w3.org/2000/svg"
 width="600.000000pt" height="600.000000pt" viewBox="0 0 600.000000 600.000000"
 preserveAspectRatio="xMidYMid meet">
<metadata>
Created by potrace 1.11, written by Peter Selinger 2001-2013
</metadata>
<g transform="translate(0.000000,600.000000) scale(0.100000,-0.100000)"
fill="#000000" stroke="none">
<path d="M459 5381 c-38 -7 -84 -24 -91 -34 0 -1 -5 -94 -9 -207 -9 -249 -16
-296 -44 -292 -89 14 -122 13 -138 -3 -56 -55 29 -104 229 -130 60 -8 127 -15
149 -15 66 -1 130 -24 133 -49 4 -28 -8 -26 -37 4 -13 14 -30 25 -39 25 -14 0
-13 -2 2 -13 19 -14 13 -47 -10 -47 -13 0 -18 -15 -17 -49 2 -28 -20 8 -27 46
l-8 38 -1 -43 c-1 -35 4 -48 28 -70 55 -53 67 -81 62 -155 -1 -8 -13 -20 -28
-28 -16 -8 -30 -16 -33 -19 -18 -19 -62 -28 -92 -19 -41 11 -47 11 -28 -1 13
-8 12 -10 -2 -10 -10 0 -18 5 -18 11 0 20 -26 37 -53 34 -21 -3 -27 1 -27 16
0 15 -4 17 -24 9 -20 -7 -25 -5 -31 13 -6 20 -8 18 -15 -13 -5 -19 -6 -39 -2
-44 6 -11 8 -23 16 -121 4 -38 11 -108 17 -155 14 -118 15 -281 2 -305 -6 -11
-39 -46 -72 -78 -34 -32 -61 -60 -61 -63 0 -2 -16 -26 -35 -54 -19 -27 -37
-61 -41 -77 -3 -15 -13 -48 -22 -73 -21 -55 -22 -251 -2 -275 7 -8 10 -15 7
-15 -3 0 1 -16 9 -35 7 -19 14 -46 14 -60 0 -15 4 -24 9 -21 5 3 19 -22 31
-55 13 -35 33 -67 47 -76 12 -8 23 -22 23 -30 0 -8 9 -17 20 -20 11 -3 20 -9
20 -13 0 -5 25 -34 55 -65 30 -31 55 -60 55 -65 0 -6 3 -9 8 -8 4 1 25 -15 46
-35 22 -20 45 -37 51 -37 5 0 16 -9 23 -20 7 -11 18 -20 25 -20 19 0 90 -38
103 -55 7 -9 16 -14 22 -13 6 2 31 -14 56 -34 24 -21 54 -38 65 -38 11 0 23
-4 26 -10 3 -5 27 -24 52 -41 25 -18 43 -27 39 -21 -11 18 0 14 20 -5 10 -10
20 -19 23 -19 21 -4 71 -30 71 -36 0 -4 9 -8 19 -8 11 0 22 -4 25 -9 4 -5 27
-19 54 -31 85 -39 92 -43 92 -53 0 -14 -86 -171 -137 -250 -25 -38 -51 -83
-58 -101 -8 -18 -20 -37 -27 -43 -23 -20 -116 -52 -155 -55 -21 -1 -41 -6 -44
-11 -12 -17 -335 -24 -332 -8 4 15 -14 14 -20 -1 -3 -10 -7 -10 -20 0 -19 16
-53 8 -66 -16 -8 -15 -3 -17 32 -18 23 -1 93 -9 155 -19 106 -16 112 -19 112
-41 l0 -23 25 23 c14 13 25 30 25 37 -1 10 -4 9 -11 -3 -11 -19 -29 -24 -29
-8 0 16 37 30 137 51 54 11 102 24 108 28 18 14 108 41 137 41 30 0 39 24 13
34 -18 7 -19 43 -2 73 35 64 140 223 158 239 20 18 20 17 -2 -36 -12 -30 -27
-72 -33 -93 -7 -20 -19 -46 -28 -56 -9 -11 -14 -22 -11 -25 3 -3 -2 -23 -11
-46 -9 -23 -12 -40 -6 -40 6 0 13 8 16 18 16 50 132 258 140 249 2 -2 -14 -39
-35 -83 -58 -118 -59 -143 -2 -36 27 52 60 106 74 120 13 15 27 34 30 44 4 12
15 16 39 14 18 -2 45 -4 60 -5 15 0 33 -7 41 -15 11 -11 17 -12 26 -3 9 9 14
9 19 0 6 -9 18 -10 38 -5 16 4 40 6 54 4 l25 -3 0 -152 c0 -133 3 -160 23
-216 13 -35 21 -65 19 -68 -5 -4 -81 -23 -153 -38 -16 -3 -81 -12 -144 -18
-76 -8 -115 -17 -116 -25 -4 -33 -6 -35 -14 -14 -5 12 -14 22 -19 22 -6 0 -7
-8 -4 -17 5 -12 2 -15 -10 -10 -11 4 -20 -1 -28 -14 -9 -18 -8 -20 8 -15 27 8
52 -9 35 -26 -6 -6 -12 -28 -11 -48 0 -32 1 -33 11 -12 9 18 19 22 57 22 130
1 315 21 403 44 l98 25 42 -23 c64 -35 140 -50 217 -42 36 4 77 8 90 9 21 2
32 -10 74 -81 33 -57 61 -91 90 -110 l41 -27 280 0 c250 0 285 2 313 18 58 31
89 101 72 162 -6 20 -19 41 -30 48 -10 6 -19 14 -19 17 0 3 52 4 116 2 100 -3
121 -1 157 17 39 19 42 20 60 3 16 -14 44 -18 158 -20 127 -3 144 -1 184 18
25 12 45 25 45 28 0 4 7 15 14 24 12 17 16 16 48 -15 46 -43 96 -57 202 -57
67 0 99 5 137 21 49 21 50 21 70 3 17 -15 40 -20 116 -22 135 -5 180 3 218 41
18 18 34 39 37 47 4 12 13 8 39 -16 70 -65 85 -69 300 -72 161 -3 203 -1 234
12 35 15 39 15 62 -4 31 -24 101 -27 143 -5 41 21 68 65 121 194 26 64 51 116
56 118 4 1 49 -61 98 -138 50 -77 103 -151 118 -165 77 -66 208 12 194 116 -3
23 -32 81 -76 149 -39 61 -71 115 -71 119 0 4 32 29 71 57 127 89 159 147 123
222 -15 29 -29 41 -60 52 -37 13 -47 13 -85 -2 -24 -9 -77 -42 -117 -72 -77
-58 -100 -68 -83 -36 6 10 55 130 111 267 64 158 100 262 100 286 0 108 -148
145 -227 55 -16 -18 -56 -101 -91 -187 -281 -697 -331 -815 -344 -811 -7 3
-87 7 -178 11 -99 4 -174 11 -187 18 -64 35 -57 137 16 216 59 64 111 55 111
-20 0 -50 20 -98 45 -108 9 -3 39 -6 67 -6 43 0 54 4 83 33 98 98 58 278 -78
348 -88 46 -241 31 -339 -32 -130 -84 -221 -266 -205 -409 l6 -46 -72 4 c-40
2 -73 5 -75 7 -1 1 29 81 68 176 38 96 70 187 70 202 0 100 -123 150 -206 84
-21 -16 -30 -18 -43 -9 -56 40 -78 47 -156 47 -100 0 -169 -29 -250 -106 -99
-94 -151 -201 -159 -332 l-5 -70 -68 2 c-37 1 -70 4 -72 6 -2 3 27 80 64 172
44 109 68 183 69 210 1 24 4 43 9 43 17 0 5 19 -15 26 -13 3 -31 14 -42 23
-10 9 -37 16 -65 17 -60 2 -119 13 -154 31 -15 7 -32 11 -38 8 -5 -4 -15 -3
-22 2 -7 5 -30 15 -53 21 -42 12 -129 65 -129 79 0 4 -15 21 -34 38 l-34 31
39 -4 c22 -2 46 -6 54 -9 8 -3 26 -8 40 -10 14 -2 34 -12 44 -21 11 -9 16 -11
12 -4 -8 14 10 17 19 2 13 -21 27 -9 21 17 l-7 28 16 -23 c9 -12 13 -28 9 -35
-4 -6 -4 -9 1 -5 4 4 28 -10 52 -32 89 -78 228 -103 359 -65 119 34 234 160
305 334 l33 81 95 0 c113 0 170 21 195 69 24 46 21 105 -8 138 -21 25 -31 28
-100 31 -42 2 -76 8 -76 14 0 5 50 131 111 281 67 162 114 291 117 319 4 44 2
50 -32 84 -35 35 -39 36 -90 32 -32 -3 -65 -13 -83 -26 l-30 -21 -49 25 c-43
23 -59 25 -129 22 -67 -4 -90 -10 -143 -38 -175 -93 -290 -321 -252 -499 14
-69 55 -134 101 -159 41 -24 36 -32 -19 -32 -129 0 -235 -41 -320 -123 -52
-51 -54 -52 -117 -53 -36 -1 -62 2 -59 7 3 5 -1 9 -8 9 -18 1 -63 40 -77 67
-6 12 -29 30 -51 40 -22 10 -40 21 -40 24 0 4 27 9 60 11 42 3 69 11 91 27 18
14 34 19 38 14 3 -6 21 -18 40 -28 48 -24 241 -18 287 9 42 25 66 69 66 120
-1 72 -60 107 -164 97 -9 -1 -19 3 -22 8 -4 5 23 82 58 171 36 88 67 174 71
190 9 40 -20 97 -58 117 -39 20 -109 12 -148 -16 l-28 -21 -37 25 c-45 30 -89
39 -164 32 -87 -8 -162 -46 -235 -121 -101 -103 -148 -224 -144 -366 2 -36 -1
-63 -6 -62 -4 2 -11 -2 -15 -8 -5 -9 -19 -2 -46 22 -22 19 -54 40 -72 46 -19
6 -47 23 -64 37 -16 14 -35 25 -43 25 -44 0 -37 23 120 411 167 414 175 443
134 500 -29 41 -69 59 -129 59 -77 0 -120 -29 -277 -183 -79 -77 -145 -139
-147 -136 -2 2 -19 60 -39 129 -32 111 -34 126 -20 137 9 7 13 19 9 28 -4 12
-9 13 -24 4 -14 -9 -25 -8 -53 7 l-34 18 48 9 c26 5 47 13 47 18 0 5 -10 7
-22 4 -13 -3 -108 -20 -212 -39 -103 -19 -191 -38 -195 -42 -3 -3 18 -3 47 1
44 6 52 4 52 -9 0 -11 -13 -18 -40 -22 -39 -6 -47 -17 -32 -42 6 -9 21 -10 62
-2 29 6 55 8 58 5 5 -5 -22 -76 -73 -190 -7 -16 -26 -63 -41 -102 l-27 -73
-61 -1 c-34 -1 -64 -1 -68 0 -4 0 -31 -4 -60 -9 -140 -27 -278 -31 -344 -10
-54 17 -116 60 -110 77 4 11 1 11 -14 3 -11 -6 -53 -9 -94 -7 -91 5 -154 33
-191 87 -15 21 -32 37 -38 35 -7 -2 -28 -6 -47 -9 -25 -4 -31 -3 -20 4 8 5 27
10 43 10 18 0 27 5 27 16 0 11 -6 14 -20 9 -48 -15 -68 -15 -74 2 -8 21 10 33
53 33 27 0 32 3 26 18 -17 44 -54 196 -49 204 3 4 18 15 33 22 27 15 42 38 82
131 19 45 22 48 32 31 27 -43 60 -76 76 -76 22 0 51 31 51 53 0 35 18 15 23
-27 7 -52 -2 -146 -14 -146 -14 0 -11 -20 5 -35 11 -12 16 -1 32 73 10 48 19
139 21 202 2 63 5 131 6 151 l1 35 81 11 c44 6 92 17 108 24 30 14 46 53 30
78 -12 20 -74 39 -127 40 l-39 1 6 78 c3 43 16 143 28 223 33 222 35 209 -36
235 -33 12 -103 29 -155 38 -109 20 -353 29 -421 17z m162 -86 c-2 -94 -10
-145 -22 -145 -14 0 -34 211 -21 225 3 3 15 5 26 3 17 -3 19 -10 17 -83z m-51
-395 c11 -7 8 -10 -15 -9 -16 0 -39 4 -50 9 -16 7 -14 9 15 9 19 0 42 -4 50
-9z m-25 -140 c22 -10 33 -19 24 -19 -18 -1 -89 26 -89 34 0 9 25 3 65 -15z
m112 -36 c-3 -3 -12 -4 -19 -1 -8 3 -5 6 6 6 11 1 17 -2 13 -5z m40 -10 c-3
-3 -12 -4 -19 -1 -8 3 -5 6 6 6 11 1 17 -2 13 -5z m56 -11 c-7 -2 -19 -2 -25
0 -7 3 -2 5 12 5 14 0 19 -2 13 -5z m80 -10 c-7 -2 -19 -2 -25 0 -7 3 -2 5 12
5 14 0 19 -2 13 -5z m-183 -133 c0 -5 -5 -10 -11 -10 -5 0 -7 5 -4 10 3 6 8
10 11 10 2 0 4 -4 4 -10z m1230 -349 c0 -11 -38 -36 -67 -43 -19 -5 -23 -2
-23 17 0 18 7 25 28 28 50 7 62 7 62 -2z m129 -25 c34 -18 52 -59 95 -219 19
-71 37 -131 40 -135 4 -3 84 71 179 164 184 182 228 212 291 200 39 -7 86 -55
86 -88 0 -11 -63 -174 -139 -361 -117 -286 -156 -385 -228 -563 -3 -9 31 -13
115 -15 101 -3 123 -7 141 -23 30 -27 27 -69 -8 -108 l-29 -33 -160 -3 c-182
-4 -218 5 -252 60 -37 61 -34 75 120 433 56 132 109 254 116 272 13 30 12 33
-6 43 -17 9 -34 -4 -138 -111 -115 -118 -119 -120 -157 -117 -34 3 -42 8 -57
38 -9 19 -25 78 -36 130 -17 83 -21 92 -30 70 -5 -14 -74 -182 -151 -375 -232
-573 -297 -689 -444 -784 -83 -55 -152 -75 -262 -75 -147 -1 -253 47 -330 152
-88 120 -100 321 -28 487 56 131 183 258 324 328 113 55 186 76 299 83 99 6
145 -10 169 -61 13 -26 12 -33 -5 -65 -21 -38 -25 -40 -218 -74 -175 -31 -300
-115 -368 -250 -25 -49 -32 -77 -36 -141 -5 -96 7 -148 47 -196 41 -50 91 -72
165 -72 84 0 135 24 199 93 88 95 120 165 432 935 130 323 149 361 185 381 32
17 45 17 79 0z m-182 -42 c-3 -3 -12 -4 -19 -1 -8 3 -5 6 6 6 11 1 17 -2 13
-5z m-877 -364 c12 -8 11 -10 -7 -10 -12 0 -38 -16 -59 -35 -20 -19 -43 -35
-51 -35 -7 0 -16 -7 -19 -15 -4 -8 -10 -13 -14 -10 -5 3 -11 1 -15 -4 -3 -6
-12 -8 -20 -4 -8 3 -15 1 -15 -5 0 -14 -48 -21 -54 -8 -2 6 -5 3 -5 -8 -1 -13
-4 -16 -13 -9 -7 6 -22 9 -33 6 -11 -2 -40 -6 -65 -9 -25 -3 -47 -8 -49 -10
-2 -2 -10 1 -17 7 -7 6 -14 6 -18 1 -3 -6 -20 -7 -40 -2 -22 5 -38 4 -45 -3
-8 -8 -11 -8 -11 1 0 7 -5 12 -11 12 -14 0 -39 26 -39 40 0 6 -4 8 -10 5 -5
-3 -10 1 -10 10 0 9 -4 13 -10 10 -5 -3 -10 -4 -10 -2 0 4 31 69 36 75 1 2 20
-6 43 -17 22 -12 44 -20 48 -19 5 0 21 -4 36 -10 16 -7 34 -12 41 -12 7 0 16
-3 20 -7 3 -4 13 -8 20 -9 7 -1 23 -5 35 -9 14 -4 21 -2 21 7 0 10 3 9 10 -2
7 -11 12 -12 18 -3 9 14 56 33 83 33 10 0 40 13 67 30 36 23 59 30 97 30 28 0
57 -5 65 -10z m700 -64 c0 -12 -54 -152 -62 -160 -4 -6 -8 -1 -8 13 0 12 -6
32 -12 44 -19 34 -17 67 4 68 10 1 23 3 28 4 6 1 15 3 20 4 6 0 10 6 10 12 0
5 -4 8 -9 4 -5 -3 -12 -1 -16 5 -4 6 5 10 19 10 14 0 26 -2 26 -4z m586 -156
c-63 -144 -68 -150 -97 -124 -13 10 -19 13 -15 7 10 -17 -5 -16 -31 2 -12 9
-35 13 -55 11 -18 -2 -37 -1 -43 2 -16 10 -55 11 -55 1 0 -6 -7 -6 -19 1 -15
8 -22 7 -28 -4 -5 -9 -13 -12 -21 -7 -10 6 -3 32 28 114 39 102 60 131 60 87
0 -34 37 -95 65 -108 62 -28 115 -8 200 78 33 33 60 60 61 60 1 0 -22 -54 -50
-120z m-691 100 c3 -5 1 -10 -4 -10 -6 0 -11 5 -11 10 0 6 2 10 4 10 3 0 8 -4
11 -10z m1688 -36 c20 -13 37 -28 37 -32 0 -4 4 -13 9 -20 6 -10 18 -2 48 28
33 32 48 40 77 40 41 0 76 -28 76 -60 0 -12 -36 -110 -80 -219 -44 -110 -80
-202 -80 -205 0 -3 36 -6 79 -6 44 0 91 -4 104 -9 50 -19 47 -89 -6 -121 -27
-17 -50 -20 -140 -20 -101 0 -109 2 -132 25 -14 13 -25 29 -25 35 0 6 -23 -5
-51 -25 -50 -34 -54 -35 -145 -35 -110 0 -146 12 -191 63 -44 51 -56 95 -51
196 5 111 43 196 124 281 109 114 248 148 347 84z m824 25 c28 -8 58 -25 80
-46 19 -19 35 -33 37 -31 1 1 10 16 20 31 21 35 77 60 111 51 14 -3 32 -19 40
-35 18 -34 21 -23 -130 -394 -56 -137 -105 -260 -109 -271 -6 -21 -3 -22 88
-26 74 -3 99 -8 115 -22 29 -26 26 -62 -7 -95 -31 -32 -96 -44 -202 -40 -33 1
-64 -2 -69 -7 -4 -5 -21 -43 -37 -84 -35 -91 -107 -203 -159 -249 -68 -59
-138 -85 -230 -85 -91 0 -147 20 -210 75 -114 101 -114 291 1 403 79 77 144
96 368 105 l158 6 19 50 c35 92 37 89 -27 56 -183 -98 -332 65 -270 295 39
147 174 289 297 313 62 12 65 12 116 0z m-2578 -371 c-132 -326 -211 -432
-335 -452 -36 -6 -42 -5 -47 13 -3 12 -1 21 4 21 5 0 9 -4 9 -10 0 -5 7 -10
16 -10 10 0 14 7 13 23 -2 12 0 27 4 33 4 7 -2 23 -13 37 -11 14 -25 49 -30
78 -13 66 -13 66 5 43 14 -18 14 -18 15 9 0 16 4 26 9 23 5 -4 13 8 16 26 4
18 10 37 13 43 3 5 7 19 8 32 3 28 30 58 39 43 8 -14 35 13 35 36 0 13 3 14
15 4 13 -11 14 -8 9 19 -6 27 -4 30 11 25 15 -6 16 -4 6 14 -9 17 -9 22 0 22
6 0 8 7 5 15 -7 20 0 22 110 39 49 7 103 21 120 29 16 9 30 16 31 17 1 0 -30
-78 -68 -172z m391 148 c0 -14 87 -46 127 -46 15 0 15 -2 3 -10 -16 -10 -12
-12 44 -25 19 -4 26 -9 18 -14 -8 -5 0 -13 22 -24 l35 -16 -21 -58 c-42 -119
-21 -206 63 -253 42 -24 51 -25 214 -25 161 0 172 1 212 24 l41 24 44 -27 c24
-14 63 -42 88 -61 25 -19 65 -49 90 -67 111 -80 169 -162 184 -263 10 -58 12
-68 18 -85 8 -18 19 -82 24 -130 2 -19 6 -46 9 -58 4 -15 2 -21 -4 -17 -6 3
-8 0 -5 -9 3 -9 -2 -17 -14 -21 -49 -15 -87 -79 -170 -286 -89 -224 -96 -261
-63 -335 10 -22 36 -55 57 -72 l39 -32 -225 3 c-124 1 -232 6 -241 10 -9 5
-26 26 -38 48 l-23 39 48 53 c26 28 62 75 79 102 178 277 227 614 120 826
-100 196 -351 257 -576 140 -178 -93 -309 -260 -389 -501 -25 -76 -38 -100
-49 -98 -9 2 -16 13 -15 26 0 12 -2 20 -5 17 -2 -3 -20 9 -38 27 -19 18 -33
26 -33 18 0 -9 -5 -8 -20 5 -15 14 -20 15 -20 4 -1 -10 -5 -9 -15 5 -7 10 -18
15 -24 12 -6 -4 -19 10 -30 31 -11 21 -20 32 -21 25 0 -7 -14 0 -31 15 -17 16
-35 27 -40 26 -5 -2 -9 1 -9 6 0 5 -8 11 -17 15 -10 3 -24 9 -31 12 -8 4 -10
0 -5 -13 6 -17 6 -17 -14 -1 -11 10 -25 18 -32 18 -13 0 -37 51 -46 98 -4 27
-2 30 28 36 54 10 168 70 229 120 104 85 175 206 303 521 31 77 68 166 82 198
25 55 43 73 43 43z m569 -677 c195 -86 262 -310 185 -617 -38 -152 -121 -307
-221 -412 l-65 -69 31 -54 c55 -96 40 -91 316 -97 221 -5 245 -7 264 -24 39
-36 20 -100 -39 -131 -24 -12 -78 -15 -288 -15 -310 0 -297 -5 -379 134 -29
49 -54 93 -55 97 -2 5 -27 1 -57 -8 -80 -23 -201 -14 -267 20 -207 106 -247
424 -97 781 109 260 351 440 568 420 33 -3 80 -14 104 -25z m827 11 c13 0 24
-1 24 -2 0 -2 -7 -21 -15 -43 -8 -22 -14 -58 -15 -79 0 -48 -19 -37 -23 13 -1
21 -15 46 -43 76 -36 40 -38 44 -20 48 12 1 31 -1 44 -5 13 -4 34 -8 48 -8z
m2477 -32 l21 -27 -41 -103 c-23 -57 -89 -219 -146 -360 -58 -142 -100 -255
-93 -251 6 4 65 47 130 96 183 138 227 158 268 120 24 -22 23 -64 -3 -97 -11
-14 -63 -58 -115 -96 l-94 -70 64 -97 c107 -166 118 -188 107 -214 -20 -53
-81 -82 -112 -53 -11 10 -72 97 -136 194 -64 96 -119 178 -123 183 -3 4 -35
-65 -71 -154 -35 -88 -77 -176 -92 -194 -35 -43 -83 -54 -121 -30 -35 23 -34
57 8 158 19 45 105 258 191 472 190 470 209 515 238 538 34 26 95 19 120 -15z
m-2479 -153 c3 -8 1 -15 -4 -15 -6 0 -10 7 -10 15 0 8 2 15 4 15 2 0 6 -7 10
-15z m10 -51 c3 -8 2 -12 -4 -9 -6 3 -10 10 -10 16 0 14 7 11 14 -7z m-104
-314 c11 -11 20 -29 20 -39 0 -11 -31 -98 -70 -193 -38 -95 -70 -182 -70 -192
0 -37 29 -56 87 -56 108 0 132 27 222 250 77 192 111 240 171 240 35 0 70 -31
70 -61 0 -12 -34 -108 -76 -213 -42 -105 -79 -197 -81 -203 -4 -10 15 -13 74
-13 130 0 172 -28 141 -95 -21 -46 -54 -55 -198 -55 -117 0 -132 2 -150 20
-11 11 -20 27 -20 35 0 22 -8 19 -51 -20 -38 -34 -42 -35 -122 -36 -154 -3
-183 4 -231 61 -45 54 -38 106 45 310 75 186 109 253 137 269 29 17 80 13 102
-9z m986 4 c19 -9 44 -30 56 -47 l22 -30 25 30 c46 54 96 67 139 37 36 -25 27
-66 -57 -274 l-80 -195 94 -6 c105 -6 125 -16 125 -64 0 -25 -8 -40 -31 -59
-29 -24 -37 -26 -139 -26 -60 0 -116 3 -125 6 -8 4 -22 19 -31 35 l-14 29 -46
-35 c-45 -35 -47 -35 -145 -35 -117 0 -153 12 -197 65 -128 156 -2 490 215
570 53 19 148 19 189 -1z m862 -17 c59 -39 85 -94 80 -170 -4 -52 -9 -64 -36
-88 -62 -56 -108 -34 -114 55 -4 46 -10 63 -28 78 -44 35 -118 19 -171 -39
-35 -37 -47 -61 -60 -121 -14 -69 1 -124 44 -154 29 -21 46 -23 197 -29 177
-6 205 -12 195 -38 -4 -9 -9 -32 -12 -51 -9 -58 -17 -60 -230 -60 -219 0 -238
4 -294 67 -55 61 -72 116 -67 216 6 108 38 179 122 263 81 81 141 105 252 101
69 -2 87 -6 122 -30z m-1628 -15 c0 -5 -6 -22 -14 -38 -8 -16 -38 -87 -66
-158 -28 -71 -57 -141 -65 -156 -26 -51 -145 -84 -145 -41 0 10 29 90 65 176
36 87 65 164 65 171 0 23 32 34 153 53 4 0 7 -3 7 -7z m-1650 -583 c0 -4 -10
-11 -22 -15 -12 -3 -27 -12 -34 -18 -19 -20 -341 -55 -329 -36 3 5 14 10 23
10 15 0 15 2 2 10 -11 7 4 10 50 12 76 2 90 3 110 11 127 47 200 56 200 26z
m-380 -43 c0 -3 -4 -8 -10 -11 -5 -3 -10 -1 -10 4 0 6 5 11 10 11 6 0 10 -2
10 -4z m-90 -20 c0 -2 -8 -10 -17 -17 -16 -13 -17 -12 -4 4 13 16 21 21 21 13z"/>
<path d="M1580 3670 c-9 -6 -10 -10 -3 -10 6 0 15 5 18 10 8 12 4 12 -15 0z"/>
<path d="M3075 3505 c-86 -46 -148 -147 -149 -241 -1 -53 3 -66 23 -88 30 -32
75 -41 128 -27 55 15 76 41 122 159 47 118 50 141 18 177 -29 34 -98 44 -142
20z m109 -50 c17 -17 14 -29 -44 -168 -34 -83 -49 -97 -104 -97 -52 0 -69 23
-64 87 5 60 53 141 103 173 36 24 88 26 109 5z"/>
<path d="M3935 3502 c-79 -49 -142 -169 -131 -252 11 -86 90 -124 180 -86 29
12 39 27 81 127 57 134 61 171 21 205 -34 30 -107 33 -151 6z m116 -41 l23
-18 -44 -112 c-24 -62 -51 -116 -61 -122 -32 -17 -97 -11 -109 10 -35 67 18
189 105 242 38 24 57 24 86 0z"/>
<path d="M3710 2770 c-112 -4 -141 -9 -170 -25 -79 -46 -92 -152 -26 -212 31
-28 43 -33 86 -33 63 0 97 17 145 72 36 42 110 181 103 196 -2 4 -64 5 -138 2z
m70 -47 c0 -5 -13 -30 -29 -58 -61 -105 -126 -143 -189 -111 -46 24 -58 84
-24 126 18 22 22 22 67 11 50 -13 67 -9 47 11 -23 23 -12 28 58 28 39 0 70 -3
70 -7z"/>
<path d="M2195 2588 c-138 -49 -263 -253 -311 -505 -30 -158 -7 -275 66 -337
26 -21 42 -26 86 -26 30 0 54 4 54 9 0 5 -18 40 -40 77 -45 78 -50 118 -19
158 16 20 29 26 59 26 47 0 62 -14 116 -110 21 -38 41 -70 44 -70 11 0 85 110
121 182 62 124 83 213 84 353 0 113 -2 123 -27 167 -45 76 -143 108 -233 76z
m151 -55 c14 -9 35 -34 47 -57 28 -54 27 -186 -3 -301 -19 -76 -82 -217 -116
-260 -16 -20 -16 -20 -27 -1 -35 56 -76 103 -104 116 -30 14 -31 16 -18 40 8
14 14 34 14 45 0 18 -1 18 -9 -2 -9 -23 -40 -32 -40 -13 0 5 7 7 15 4 23 -9
18 4 -6 17 -16 8 -23 8 -29 -1 -5 -8 -17 -9 -41 -2 -26 7 -38 6 -47 -5 -7 -7
-18 -11 -23 -7 -7 4 -8 -7 -3 -31 6 -35 -18 -115 -36 -115 -12 0 1 94 14 105
6 6 10 22 8 36 -4 32 28 130 73 224 71 150 156 225 252 225 33 0 63 -6 79 -17z"/>
<path d="M2042 2259 c2 -11 16 -28 32 -37 45 -26 66 -50 60 -67 -4 -9 0 -15 9
-15 8 0 17 6 20 13 4 9 8 9 23 -1 65 -43 78 -50 89 -46 7 3 16 1 20 -5 3 -6
11 -11 17 -11 6 0 3 11 -6 25 -18 27 -21 39 -7 31 5 -4 7 3 4 14 -3 11 0 20 6
20 13 0 -38 77 -56 84 -7 3 -13 -1 -13 -9 0 -8 4 -15 9 -15 5 0 11 -10 14 -21
6 -21 6 -21 -18 1 l-24 22 6 -22 c8 -32 -16 -22 -42 17 -20 29 -42 32 -57 9
-4 -7 -13 -5 -25 5 -10 9 -28 19 -41 22 -19 4 -23 2 -20 -14z"/>
<path d="M4024 2086 c-120 -54 -198 -254 -130 -333 22 -25 31 -28 84 -28 87 0
107 18 160 146 24 57 44 119 45 137 2 67 -87 111 -159 78z m97 -46 c26 -14 25
-24 -20 -134 -49 -123 -61 -136 -121 -136 -44 0 -49 2 -61 31 -25 61 27 175
101 227 36 24 70 28 101 12z"/>
<path d="M1585 1570 l-20 -9 20 0 c11 0 29 4 40 9 l20 9 -20 0 c-11 0 -29 -4
-40 -9z"/>
<path d="M382 4673 c-7 -13 -10 -23 -8 -23 3 0 -6 -16 -19 -36 -14 -20 -25
-44 -25 -52 0 -9 16 11 35 43 20 32 34 66 32 74 -2 12 -6 11 -15 -6z"/>
<path d="M570 4656 c0 -22 3 -27 11 -19 6 6 19 9 28 6 10 -3 8 0 -4 8 -11 7
-23 17 -27 23 -4 6 -8 -2 -8 -18z"/>
<path d="M900 4250 c0 -5 5 -10 10 -10 6 0 10 5 10 10 0 6 -4 10 -10 10 -5 0
-10 -4 -10 -10z"/>
<path d="M780 4201 c0 -11 4 -22 9 -25 11 -7 20 14 13 32 -7 19 -22 14 -22 -7z"/>
<path d="M1278 4131 c-170 -32 -311 -61 -315 -64 -3 -4 -2 -7 3 -7 32 -1 634
115 634 122 0 4 -3 7 -7 7 -5 -1 -146 -27 -315 -58z"/>
<path d="M1628 4183 c7 -3 16 -2 19 1 4 3 -2 6 -13 5 -11 0 -14 -3 -6 -6z"/>
<path d="M1640 4138 c0 -22 17 -41 29 -34 8 5 8 13 1 27 -12 21 -30 26 -30 7z"/>
<path d="M1395 4104 c-99 -18 -233 -43 -297 -55 -116 -21 -137 -32 -105 -56
17 -14 632 99 631 115 -3 40 7 40 -229 -4z"/>
<path d="M4720 3969 c-102 -42 -126 -168 -49 -247 l31 -32 -32 -6 c-63 -13
-89 -54 -189 -299 -101 -249 -113 -299 -84 -354 30 -58 78 -75 221 -80 149 -4
200 8 242 56 23 26 30 43 30 77 0 77 -38 105 -151 109 -35 2 -43 6 -41 19 1 9
30 83 63 164 74 182 80 216 46 265 l-25 37 39 11 c104 31 132 189 45 256 -37
28 -108 40 -146 24z m114 -60 c75 -59 32 -179 -64 -179 -73 0 -119 71 -90 141
24 57 104 77 154 38z m-72 -286 c10 -9 18 -29 18 -47 -1 -17 -36 -119 -79
-226 l-79 -195 93 -5 c94 -5 119 -15 130 -50 9 -28 -20 -75 -54 -89 -19 -9
-73 -12 -164 -9 -118 3 -139 6 -163 24 -58 43 -54 59 76 379 83 202 106 235
166 235 21 0 46 -7 56 -17z"/>
<path d="M5183 3685 c-67 -20 -126 -60 -181 -120 -66 -71 -102 -147 -115 -240
-25 -174 51 -320 187 -360 59 -18 359 -21 418 -5 76 22 121 99 97 168 -19 54
-51 63 -241 71 -165 6 -171 7 -190 31 -45 56 1 191 78 227 51 25 68 10 74 -62
4 -47 11 -61 33 -81 53 -46 146 -26 186 39 73 118 3 292 -132 332 -61 18 -157
18 -214 0z m217 -51 c45 -19 68 -41 91 -86 52 -102 -8 -234 -97 -212 -32 8
-36 16 -39 81 -5 72 -23 93 -84 93 -88 0 -163 -83 -175 -196 -9 -74 10 -114
64 -141 40 -21 59 -23 190 -23 152 0 192 -9 198 -44 7 -34 -9 -67 -41 -86 -29
-18 -50 -20 -217 -20 -209 0 -240 8 -296 72 -51 58 -67 114 -62 212 5 105 42
186 119 263 102 103 233 135 349 87z"/>
<path d="M1130 1793 c0 -4 -11 -13 -25 -20 -14 -6 -23 -7 -19 -2 13 21 -17 7
-32 -15 -8 -14 -31 -30 -50 -36 -19 -6 -34 -16 -34 -21 0 -5 -5 -9 -12 -9 -6
0 -20 -8 -30 -17 -11 -10 -36 -18 -56 -19 -20 -1 -50 -4 -67 -7 -16 -3 -50 -9
-74 -12 -83 -13 -18 -21 129 -15 188 7 230 4 237 -18 15 -47 28 -70 36 -65 4
2 5 14 2 26 -5 16 -4 18 3 8 16 -23 36 27 35 87 0 48 2 52 19 46 17 -5 18 -3
9 15 -7 12 -17 18 -26 15 -11 -5 -17 3 -21 25 -6 28 -24 54 -24 34z m14 -99
c3 -8 2 -12 -4 -9 -6 4 -10 -7 -10 -24 0 -17 5 -31 10 -31 6 0 10 -9 10 -20 0
-13 -5 -18 -15 -14 -21 9 -21 114 1 114 1 0 5 -7 8 -16z m-107 -50 c-3 -3 -12
-4 -19 -1 -8 3 -5 6 6 6 11 1 17 -2 13 -5z"/>
</g>
</svg>
